<svg width="167" height="169" viewBox="0 0 167 169" fill="none" xmlns="http://www.w3.org/2000/svg">
<path d="M166.51 93.2483H124.422C120.561 112.457 103.747 126.915 83.5883 126.915C63.4305 126.915 46.6159 112.457 42.7553 93.2483H0.666626C4.84763 135.78 40.3773 168.998 83.5883 168.998C126.8 168.998 162.329 135.78 166.51 93.2483Z" fill="#4F4F4F"/>
<path d="M166.51 76.5833C162.329 34.0512 126.8 0.833313 83.5883 0.833313C40.3774 0.833313 4.84769 34.0512 0.666687 76.5833H42.7554C46.6159 57.3745 63.4306 42.9166 83.5883 42.9166C103.747 42.9166 120.561 57.3745 124.422 76.5833H166.51Z" fill="#4F4F4F"/>
<path fill-rule="evenodd" clip-rule="evenodd" d="M83.5883 110.166C97.3958 110.166 108.588 98.8614 108.588 84.9158C108.588 70.9703 97.3958 59.6658 83.5883 59.6658C69.7817 59.6658 58.5885 70.9703 58.5885 84.9158C58.5885 98.8614 69.7817 110.166 83.5883 110.166ZM96.0883 84.9158C96.0883 91.8882 90.4925 97.5408 83.5883 97.5408C76.685 97.5408 71.0883 91.8882 71.0883 84.9158C71.0883 77.9435 76.685 72.2908 83.5883 72.2908C90.4925 72.2908 96.0883 77.9435 96.0883 84.9158Z" fill="#4F4F4F"/>
</svg>
